<svg width="406" height="75" viewBox="0 0 406 75" fill="none" xmlns="http://www.w3.org/2000/svg">
<path d="M63.28 31.432C66.608 32.776 69.168 34.824 70.96 37.576C72.816 40.264 73.744 43.368 73.744 46.888C73.744 50.408 73.168 53.832 72.016 57.16C70.928 60.488 69.36 63.464 67.312 66.088C65.264 68.648 62.8 70.728 59.92 72.328C57.104 73.864 53.968 74.632 50.512 74.632C48.784 74.632 47.152 74.408 45.616 73.96C44.144 73.576 42.832 73 41.68 72.232C40.528 71.4 39.6 70.376 38.896 69.16C38.256 67.944 37.936 66.504 37.936 64.84C37.936 62.152 38.608 59.848 39.952 57.928C41.296 56.008 43.216 55.048 45.712 55.048C47.312 55.048 48.56 55.56 49.456 56.584C50.416 57.608 50.896 58.76 50.896 60.04C50.896 62.472 49.68 63.688 47.248 63.688C45.264 63.688 43.696 62.856 42.544 61.192C42.16 61.896 41.968 62.76 41.968 63.784C41.968 65.768 42.736 67.4 44.272 68.68C45.808 69.96 47.664 70.6 49.84 70.6C52.72 70.6 55.344 69.928 57.712 68.584C60.08 67.24 62.096 65.448 63.76 63.208C65.488 60.968 66.832 58.408 67.792 55.528C68.752 52.648 69.232 49.672 69.232 46.6C69.232 44.168 68.624 41.928 67.408 39.88C66.192 37.832 64.464 36.456 62.224 35.752C61.84 37.352 61.072 39.016 59.92 40.744C58.768 42.408 57.424 43.944 55.888 45.352C54.416 46.696 52.816 47.816 51.088 48.712C49.424 49.608 47.824 50.056 46.288 50.056C42.896 50.056 41.2 48.616 41.2 45.736C41.2 43.624 41.712 41.672 42.736 39.88C43.76 38.024 45.072 36.424 46.672 35.08C48.336 33.736 50.224 32.68 52.336 31.912C54.448 31.144 56.624 30.76 58.864 30.76C59.248 29.544 59.44 28.232 59.44 26.824C59.44 25.288 59.216 23.88 58.768 22.6C58.32 21.256 57.648 20.104 56.752 19.144C55.92 18.12 54.864 17.32 53.584 16.744C52.304 16.168 50.864 15.88 49.264 15.88C48.56 15.88 48.112 15.912 47.92 15.976C41.072 35.304 34.544 49.864 28.336 59.656C22.128 69.384 16.016 74.248 10 74.248C7.312 74.248 5.104 73.256 3.376 71.272C1.712 69.288 0.88 66.472 0.88 62.824C0.88 58.856 1.648 54.824 3.184 50.728C4.72 46.632 6.768 42.696 9.328 38.92C11.888 35.08 14.8 31.496 18.064 28.168C21.392 24.776 24.848 21.864 28.432 19.432C32.016 16.936 35.568 14.984 39.088 13.576C42.672 12.104 45.968 11.368 48.976 11.368C51.088 11.368 53.04 11.784 54.832 12.616C56.688 13.448 58.256 14.6 59.536 16.072C60.88 17.48 61.936 19.144 62.704 21.064C63.472 22.92 63.856 24.904 63.856 27.016C63.856 28.552 63.664 30.024 63.28 31.432ZM46.864 46.12C47.504 46.12 48.336 45.768 49.36 45.064C50.448 44.36 51.536 43.464 52.624 42.376C53.776 41.224 54.8 40.008 55.696 38.728C56.656 37.384 57.296 36.104 57.616 34.888H56.656C55.312 34.888 53.968 35.24 52.624 35.944C51.28 36.584 50.064 37.416 48.976 38.44C47.952 39.4 47.12 40.456 46.48 41.608C45.84 42.76 45.52 43.816 45.52 44.776C45.52 45.672 45.968 46.12 46.864 46.12ZM42.448 17.128C38.16 18.28 33.136 21.256 27.376 26.056C21.68 30.792 16.592 36.616 12.112 43.528C7.632 50.376 5.392 56.712 5.392 62.536C5.392 64.712 5.808 66.44 6.64 67.72C7.536 68.936 8.72 69.544 10.192 69.544C12.176 69.544 14.288 68.616 16.528 66.76C18.768 64.904 20.752 62.728 22.48 60.232C24.208 57.736 26.032 54.6 27.952 50.824C29.936 47.048 31.472 43.944 32.56 41.512C33.648 39.016 36.944 30.888 42.448 17.128ZM99.6873 73.864C93.1593 73.864 88.1353 72.04 84.6153 68.392C81.1593 64.68 79.4313 59.88 79.4313 53.992C79.4313 51.88 79.6873 49.64 80.1992 47.272C80.7753 44.904 81.7033 42.44 82.9833 39.88C84.2633 37.32 85.8633 35.048 87.7833 33.064C89.7033 31.016 92.1673 29.352 95.1753 28.072C98.1833 26.728 101.511 26.056 105.159 26.056C111.687 26.056 116.711 27.912 120.231 31.624C123.751 35.272 125.511 40.04 125.511 45.928C125.511 48.04 125.223 50.312 124.647 52.744C124.135 55.112 123.207 57.576 121.863 60.136C120.519 62.632 118.887 64.904 116.967 66.952C115.111 68.936 112.679 70.6 109.671 71.944C106.663 73.224 103.335 73.864 99.6873 73.864ZM99.6873 69.832C103.975 69.832 107.751 68.616 111.015 66.184C114.279 63.688 116.679 60.712 118.215 57.256C119.751 53.8 120.519 50.28 120.519 46.696C120.519 43.944 120.103 41.416 119.271 39.112C118.439 36.744 116.839 34.664 114.471 32.872C112.103 31.016 109.063 30.088 105.351 30.088C101.063 30.088 97.2553 31.336 93.9273 33.832C90.6633 36.264 88.2633 39.208 86.7273 42.664C85.1913 46.12 84.4233 49.64 84.4233 53.224C84.4233 55.976 84.8393 58.536 85.6713 60.904C86.5033 63.208 88.1033 65.288 90.4713 67.144C92.9033 68.936 95.9753 69.832 99.6873 69.832ZM99.1113 47.464C97.8313 46.312 97.1913 45.48 97.1913 44.968C97.1913 44.392 97.5753 43.88 98.3433 43.432C99.1113 42.92 99.8473 42.664 100.551 42.664C100.871 42.664 101.127 42.888 101.319 43.336C101.511 43.72 101.639 44.296 101.703 45.064C101.767 45.832 101.799 46.248 101.799 46.312C102.375 46.312 102.919 46.376 103.431 46.504C103.495 46.44 103.623 46.024 103.815 45.256C104.071 44.488 104.327 43.944 104.583 43.624C104.839 43.24 105.127 43.048 105.447 43.048C106.215 43.048 106.983 43.368 107.751 44.008C108.519 44.648 108.903 45.32 108.903 46.024C108.903 46.408 107.911 47.048 105.927 47.944C106.247 48.264 106.439 48.584 106.503 48.904C108.039 48.136 108.999 47.752 109.383 47.752C110.599 47.752 111.207 48.456 111.207 49.864C111.207 51.848 110.407 52.84 108.807 52.84C108.615 52.84 107.815 52.552 106.407 51.976C106.343 52.168 106.023 52.552 105.447 53.128C106.919 54.6 107.655 55.592 107.655 56.104C107.655 56.744 107.303 57.288 106.599 57.736C105.959 58.12 105.255 58.312 104.487 58.312C103.783 58.312 103.271 56.936 102.951 54.184C102.503 54.312 102.055 54.312 101.607 54.184C101.543 54.248 101.351 54.76 101.031 55.72C100.711 56.616 100.391 57.288 100.071 57.736C99.7513 58.184 99.4313 58.408 99.1113 58.408C98.4073 58.408 97.6713 58.088 96.9033 57.448C96.1353 56.808 95.7513 56.136 95.7513 55.432C95.7513 55.176 96.7433 54.312 98.7273 52.84C98.4713 52.584 98.2153 52.2 97.9593 51.688C97.6393 52.008 96.7433 52.168 95.2713 52.168C94.2473 52.168 93.7353 51.464 93.7353 50.056C93.7353 48.84 94.2793 48.232 95.3673 48.232C96.8393 48.232 97.7353 48.36 98.0553 48.616C98.3113 48.104 98.6633 47.72 99.1113 47.464ZM100.167 48.52C99.6553 49.032 99.3993 49.64 99.3993 50.344C99.3993 51.048 99.6553 51.688 100.167 52.264C100.743 52.776 101.383 53.032 102.087 53.032C102.791 53.032 103.399 52.776 103.911 52.264C104.487 51.688 104.775 51.048 104.775 50.344C104.775 49.64 104.487 49.032 103.911 48.52C103.399 47.944 102.791 47.656 102.087 47.656C101.383 47.656 100.743 47.944 100.167 48.52ZM142.608 55.24C140.304 55.24 138.512 55.976 137.232 57.448C135.952 58.856 135.312 60.584 135.312 62.632C135.312 64.68 136.048 66.472 137.52 68.008C138.992 69.544 141.072 70.312 143.76 70.312C147.472 70.312 150.8 68.36 153.744 64.456C156.752 60.488 158.928 56.168 160.272 51.496C161.616 46.824 162.288 42.6 162.288 38.824C162.288 33 159.952 30.088 155.28 30.088C153.36 30.088 151.472 30.696 149.616 31.912C147.824 33.064 146.384 34.664 145.296 36.712C147.216 37.224 148.176 38.568 148.176 40.744C148.176 41.832 147.792 42.792 147.024 43.624C146.32 44.456 145.456 44.872 144.432 44.872C143.344 44.872 142.416 44.456 141.648 43.624C140.88 42.728 140.496 41.704 140.496 40.552C140.496 36.52 142.032 33.064 145.104 30.184C148.24 27.24 151.824 25.768 155.856 25.768C161.488 25.768 165.008 28.296 166.416 33.352C168.4 31.176 171.184 29.352 174.768 27.88C178.352 26.408 181.712 25.672 184.848 25.672C190.032 25.672 193.008 27.784 193.776 32.008C199.024 27.784 203.888 25.672 208.368 25.672C210.992 25.672 213.136 26.312 214.8 27.592C216.464 28.872 217.296 30.824 217.296 33.448C217.296 36.52 216.4 39.976 214.608 43.816C212.816 47.656 211.024 51.496 209.232 55.336C207.44 59.112 206.544 62.504 206.544 65.512C206.544 68.52 207.952 70.024 210.768 70.024C212.368 70.024 214.032 69.544 215.76 68.584C217.552 67.56 218.896 66.376 219.792 65.032C217.68 63.944 216.624 62.504 216.624 60.712C216.624 59.624 217.008 58.728 217.776 58.024C218.608 57.256 219.76 56.872 221.232 56.872C222.448 56.872 223.536 57.288 224.496 58.12C225.456 58.952 225.936 59.944 225.936 61.096C225.936 64.552 224.208 67.592 220.752 70.216C217.296 72.84 213.68 74.152 209.904 74.152C207.408 74.152 205.36 73.48 203.76 72.136C202.16 70.728 201.36 68.68 201.36 65.992C201.36 62.92 202.224 59.368 203.952 55.336C205.744 51.304 207.504 47.4 209.232 43.624C211.024 39.848 211.92 36.712 211.92 34.216C211.92 31.592 210.512 30.28 207.696 30.28C203.792 30.28 199.152 32.904 193.776 38.152C193.648 41.544 193.168 45.224 192.336 49.192C191.504 53.16 190.384 57.064 188.976 60.904C187.632 64.68 185.84 67.848 183.6 70.408C181.424 72.904 179.056 74.152 176.496 74.152C173.872 74.152 172.56 72.488 172.56 69.16C172.56 65.704 174.192 60.68 177.456 54.088C180.784 47.496 184.688 41.64 189.168 36.52C189.168 32.232 187.088 30.088 182.927 30.088C180.176 30.088 177.264 30.952 174.192 32.68C171.12 34.344 168.72 36.168 166.992 38.152C166.992 41.736 166.512 45.512 165.552 49.48C164.592 53.384 163.184 57.224 161.328 61C159.536 64.712 157.072 67.784 153.936 70.216C150.864 72.648 147.408 73.864 143.568 73.864C139.536 73.864 136.368 72.776 134.064 70.6C131.76 68.424 130.608 65.832 130.608 62.824C130.608 59.816 131.632 57.224 133.68 55.048C135.792 52.872 138.672 51.784 142.32 51.784C145.072 51.784 147.344 52.424 149.136 53.704C150.928 54.984 151.824 56.744 151.824 58.984C151.824 60.712 151.28 62.088 150.192 63.112C149.104 64.136 147.888 64.648 146.544 64.648C145.52 64.648 144.592 64.36 143.76 63.784C142.928 63.144 142.512 62.312 142.512 61.288C142.512 60.136 142.896 59.112 143.664 58.216C144.432 57.256 145.296 56.584 146.256 56.2C145.04 55.56 143.824 55.24 142.608 55.24ZM177.264 68.488C177.264 69.128 177.456 69.448 177.84 69.448C179.376 69.448 181.232 66.856 183.408 61.672C185.584 56.488 187.152 50.952 188.112 45.064C184.976 49.16 182.384 53.512 180.336 58.12C178.288 62.664 177.264 66.12 177.264 68.488ZM232.545 9.44799C232.545 6.568 233.409 4.392 235.137 2.92C236.865 1.448 238.849 0.711998 241.089 0.711998C243.201 0.711998 245.121 1.48 246.849 3.016C248.641 4.488 249.537 6.728 249.537 9.736C249.537 11.144 249.441 12.52 249.249 13.864C249.121 15.144 248.865 16.552 248.481 18.088C248.161 19.56 247.745 21.16 247.233 22.888C246.785 24.616 246.241 26.568 245.601 28.744C244.961 30.792 244.385 32.776 243.873 34.696C243.361 36.616 242.913 38.472 242.529 40.264C244.385 35.464 247.009 31.816 250.401 29.32C253.793 26.824 257.505 25.576 261.537 25.576C263.841 25.576 265.921 26.088 267.777 27.112C269.697 28.072 271.329 29.384 272.673 31.048C274.017 32.712 275.041 34.696 275.745 37C276.449 39.24 276.801 41.64 276.801 44.2C276.801 47.72 276.193 51.272 274.977 54.856C273.825 58.376 272.161 61.576 269.985 64.456C267.809 67.272 265.153 69.576 262.017 71.368C258.945 73.16 255.489 74.056 251.649 74.056C247.041 74.056 243.297 72.36 240.417 68.968C237.601 65.576 236.193 60.584 236.193 53.992C236.193 48.104 237.633 40.168 240.513 30.184C243.393 20.2 244.833 13.512 244.833 10.12C244.833 8.648 244.513 7.432 243.873 6.472C243.233 5.448 242.401 4.936 241.377 4.936C240.481 4.936 239.521 5.384 238.497 6.27999C239.329 7.112 239.745 8.168 239.745 9.44799C239.745 10.6 239.393 11.592 238.689 12.424C237.985 13.192 237.121 13.576 236.097 13.576C235.073 13.576 234.209 13.192 233.505 12.424C232.865 11.592 232.545 10.6 232.545 9.44799ZM254.241 56.392C252.769 55.112 252.033 53.48 252.033 51.496C252.033 50.152 252.417 49.096 253.185 48.328C254.017 47.56 254.945 47.176 255.969 47.176C257.121 47.176 258.081 47.592 258.849 48.424C259.617 49.256 260.001 50.472 260.001 52.072C260.001 54.44 259.361 56.36 258.081 57.832C256.801 59.24 254.945 59.944 252.513 59.944C249.057 59.944 246.433 58.632 244.641 56.008C242.913 53.32 242.049 49.64 242.049 44.968C241.281 48.424 240.897 51.656 240.897 54.664C240.897 59.08 241.825 62.664 243.681 65.416C245.601 68.104 248.513 69.448 252.417 69.448C255.105 69.448 257.633 68.744 260.001 67.336C262.433 65.928 264.545 64.072 266.337 61.768C268.193 59.464 269.633 56.84 270.657 53.896C271.745 50.888 272.289 47.816 272.289 44.68C272.289 39.88 271.201 36.264 269.025 33.832C266.913 31.4 264.385 30.184 261.441 30.184C259.521 30.184 257.665 30.6 255.873 31.432C254.081 32.264 252.449 33.416 250.977 34.888C249.569 36.296 248.417 37.992 247.521 39.976C246.689 41.896 246.273 44.008 246.273 46.312C246.273 47.464 246.433 48.648 246.753 49.864C247.137 51.016 247.649 52.072 248.289 53.032C248.993 53.992 249.825 54.792 250.785 55.432C251.809 56.008 252.961 56.328 254.241 56.392ZM303.406 73.864C296.878 73.864 291.854 72.04 288.334 68.392C284.878 64.68 283.15 59.88 283.15 53.992C283.15 51.88 283.406 49.64 283.918 47.272C284.494 44.904 285.422 42.44 286.702 39.88C287.982 37.32 289.582 35.048 291.502 33.064C293.422 31.016 295.886 29.352 298.894 28.072C301.902 26.728 305.23 26.056 308.878 26.056C315.406 26.056 320.43 27.912 323.95 31.624C327.47 35.272 329.23 40.04 329.23 45.928C329.23 48.04 328.942 50.312 328.366 52.744C327.854 55.112 326.926 57.576 325.582 60.136C324.238 62.632 322.606 64.904 320.686 66.952C318.83 68.936 316.398 70.6 313.39 71.944C310.382 73.224 307.054 73.864 303.406 73.864ZM303.406 69.832C307.694 69.832 311.47 68.616 314.734 66.184C317.998 63.688 320.398 60.712 321.934 57.256C323.47 53.8 324.238 50.28 324.238 46.696C324.238 43.944 323.822 41.416 322.99 39.112C322.158 36.744 320.558 34.664 318.19 32.872C315.822 31.016 312.782 30.088 309.07 30.088C304.782 30.088 300.974 31.336 297.646 33.832C294.382 36.264 291.982 39.208 290.446 42.664C288.91 46.12 288.142 49.64 288.142 53.224C288.142 55.976 288.558 58.536 289.39 60.904C290.222 63.208 291.822 65.288 294.19 67.144C296.622 68.936 299.694 69.832 303.406 69.832ZM302.83 47.464C301.55 46.312 300.91 45.48 300.91 44.968C300.91 44.392 301.294 43.88 302.062 43.432C302.83 42.92 303.566 42.664 304.27 42.664C304.59 42.664 304.846 42.888 305.038 43.336C305.23 43.72 305.358 44.296 305.422 45.064C305.486 45.832 305.518 46.248 305.518 46.312C306.094 46.312 306.638 46.376 307.15 46.504C307.214 46.44 307.342 46.024 307.534 45.256C307.79 44.488 308.046 43.944 308.302 43.624C308.558 43.24 308.846 43.048 309.166 43.048C309.934 43.048 310.702 43.368 311.47 44.008C312.238 44.648 312.622 45.32 312.622 46.024C312.622 46.408 311.63 47.048 309.646 47.944C309.966 48.264 310.158 48.584 310.222 48.904C311.758 48.136 312.718 47.752 313.102 47.752C314.318 47.752 314.926 48.456 314.926 49.864C314.926 51.848 314.126 52.84 312.526 52.84C312.334 52.84 311.534 52.552 310.126 51.976C310.062 52.168 309.742 52.552 309.166 53.128C310.638 54.6 311.374 55.592 311.374 56.104C311.374 56.744 311.022 57.288 310.318 57.736C309.678 58.12 308.974 58.312 308.206 58.312C307.502 58.312 306.99 56.936 306.67 54.184C306.222 54.312 305.774 54.312 305.326 54.184C305.262 54.248 305.07 54.76 304.75 55.72C304.43 56.616 304.11 57.288 303.79 57.736C303.47 58.184 303.15 58.408 302.83 58.408C302.126 58.408 301.39 58.088 300.622 57.448C299.854 56.808 299.47 56.136 299.47 55.432C299.47 55.176 300.462 54.312 302.446 52.84C302.19 52.584 301.934 52.2 301.678 51.688C301.358 52.008 300.462 52.168 298.99 52.168C297.966 52.168 297.454 51.464 297.454 50.056C297.454 48.84 297.998 48.232 299.086 48.232C300.558 48.232 301.454 48.36 301.774 48.616C302.03 48.104 302.382 47.72 302.83 47.464ZM303.886 48.52C303.374 49.032 303.118 49.64 303.118 50.344C303.118 51.048 303.374 51.688 303.886 52.264C304.462 52.776 305.102 53.032 305.806 53.032C306.51 53.032 307.118 52.776 307.63 52.264C308.206 51.688 308.494 51.048 308.494 50.344C308.494 49.64 308.206 49.032 307.63 48.52C307.118 47.944 306.51 47.656 305.806 47.656C305.102 47.656 304.462 47.944 303.886 48.52ZM313.294 7.816C315.342 7.816 316.366 8.744 316.366 10.6C315.982 12.52 314.734 14.952 312.622 17.896C310.51 20.776 309.102 22.216 308.398 22.216C308.014 22.216 307.63 22.088 307.246 21.832C306.862 21.576 306.67 21.224 306.67 20.776C306.67 18.984 307.47 16.392 309.07 13C310.67 9.544 312.078 7.816 313.294 7.816ZM345.75 65.32C345.75 66.984 344.694 68.392 342.582 69.544C343.35 69.864 344.086 70.024 344.79 70.024C346.774 70.024 348.822 68.456 350.934 65.32C353.046 62.184 354.806 58.504 356.214 54.28C357.686 50.056 358.87 45.96 359.766 41.992C360.726 37.96 361.206 34.92 361.206 32.872C361.206 29.864 359.606 28.36 356.406 28.36C353.078 28.36 349.622 29.704 346.038 32.392C342.454 35.016 340.662 37.96 340.662 41.224C340.662 42.76 341.046 43.528 341.814 43.528C341.878 43.528 341.974 43.176 342.102 42.472C342.23 41.704 342.582 40.968 343.158 40.264C343.734 39.56 344.598 39.208 345.75 39.208C346.838 39.208 347.766 39.592 348.534 40.36C349.302 41.064 349.686 41.96 349.686 43.048C349.686 44.584 348.982 45.768 347.574 46.6C346.166 47.432 344.566 47.848 342.774 47.848C340.854 47.848 339.222 47.272 337.878 46.12C336.598 44.968 335.958 43.176 335.958 40.744C335.958 36.328 338.198 32.392 342.678 28.936C347.158 25.48 351.926 23.752 356.982 23.752C362.998 23.752 366.006 26.856 366.006 33.064C366.006 33.256 365.942 33.928 365.814 35.08C368.054 32.776 370.806 30.76 374.07 29.032C377.398 27.24 380.31 26.344 382.806 26.344C388.566 26.344 391.446 29.512 391.446 35.848C391.446 38.984 390.39 43.816 388.278 50.344C386.23 56.808 385.206 61.064 385.206 63.112C385.206 65.096 385.91 66.632 387.318 67.72C388.726 68.744 390.454 69.256 392.502 69.256C394.806 69.256 396.854 68.552 398.646 67.144C400.502 65.672 401.43 63.72 401.43 61.288C401.43 59.944 401.014 58.92 400.182 58.216C399.414 57.448 398.486 57.064 397.398 57.064C396.63 57.064 395.958 57.256 395.382 57.64C394.87 57.96 394.614 58.376 394.614 58.888C395.702 59.784 396.246 60.936 396.246 62.344C396.246 63.432 395.862 64.296 395.094 64.936C394.39 65.512 393.558 65.8 392.598 65.8C391.574 65.8 390.678 65.48 389.91 64.84C389.206 64.2 388.854 63.304 388.854 62.152C388.854 59.784 389.494 57.768 390.774 56.104C392.054 54.376 394.134 53.512 397.014 53.512C399.318 53.512 401.334 54.312 403.062 55.912C404.854 57.448 405.75 59.4 405.75 61.768C405.75 65.48 404.406 68.392 401.718 70.504C399.03 72.616 395.894 73.672 392.31 73.672C388.982 73.672 386.134 72.744 383.766 70.888C381.398 69.032 380.214 66.44 380.214 63.112C380.214 60.424 381.302 55.912 383.478 49.576C385.654 43.24 386.742 38.6 386.742 35.656C386.742 32.712 385.43 31.24 382.806 31.24C380.118 31.24 376.95 32.424 373.302 34.792C369.718 37.16 366.774 39.688 364.47 42.376C363.702 45.896 362.774 49.352 361.686 52.744C360.598 56.072 359.254 59.464 357.654 62.92C356.118 66.312 354.262 69.064 352.086 71.176C349.91 73.288 347.606 74.344 345.174 74.344C343.062 74.344 341.142 73.736 339.414 72.52C337.75 71.24 336.918 69.448 336.918 67.144C336.918 65.48 337.398 64.2 338.358 63.304C339.382 62.408 340.534 61.96 341.814 61.96C342.966 61.96 343.894 62.248 344.598 62.824C345.366 63.4 345.75 64.232 345.75 65.32Z" fill="#410752"/>
</svg>
